<?xml version="1.0" encoding="utf-8"?>
<!-- Generator: Adobe Illustrator 27.5.0, SVG Export Plug-In . SVG Version: 6.00 Build 0)  -->
<svg version="1.1" id="Layer_1" xmlns="http://www.w3.org/2000/svg" xmlns:xlink="http://www.w3.org/1999/xlink" x="0px" y="0px"
	 viewBox="0 0 4000 4000" style="enable-background:new 0 0 4000 4000;" xml:space="preserve">
<g>
	<rect style="fill-rule:evenodd;clip-rule:evenodd;" width="4000" height="4000"/>
	<polygon style="fill-rule:evenodd;clip-rule:evenodd;fill:#7385A1;" points="1795.373,1687.172 1795.373,1228.319 
		2254.225,1228.319 	"/>
	<g>
		<defs>
			<polygon id="SVGID_1_" points="1795.373,1687.172 1780.326,1702.219 1344.038,2138.501 1344.038,1672.122 1787.845,1228.319 
				1795.373,1228.319 2254.225,1228.319 			"/>
		</defs>
		<clipPath id="SVGID_00000006667831515062889210000014042270242934295726_">
			<use xlink:href="#SVGID_1_"  style="overflow:visible;"/>
		</clipPath>
		
			<linearGradient id="SVGID_00000072997008467315853110000013374947804639109535_" gradientUnits="userSpaceOnUse" x1="2331.095" y1="1233.58" x2="1316.0088" y2="2091.9412">
			<stop  offset="0" style="stop-color:#FFF000"/>
			<stop  offset="1" style="stop-color:#BC599C"/>
		</linearGradient>
		
			<rect x="1344.038" y="1228.319" style="clip-path:url(#SVGID_00000006667831515062889210000014042270242934295726_);fill:url(#SVGID_00000072997008467315853110000013374947804639109535_);" width="910.187" height="910.182"/>
	</g>
	<g>
		<defs>
			<polygon id="SVGID_00000163069011542025966740000010598278770916979382_" points="1780.326,1702.219 1795.373,1717.618 
				1795.373,2187.406 1795.373,2555.993 1344.038,2555.993 1344.038,2138.501 			"/>
		</defs>
		<clipPath id="SVGID_00000067198873591276214030000008727732188551363006_">
			<use xlink:href="#SVGID_00000163069011542025966740000010598278770916979382_"  style="overflow:visible;"/>
		</clipPath>
		
			<linearGradient id="SVGID_00000036943928704546683420000018029590814816139908_" gradientUnits="userSpaceOnUse" x1="1750.2294" y1="1812.4534" x2="1179.5295" y2="2813.5042">
			<stop  offset="0" style="stop-color:#D513D8"/>
			<stop  offset="1" style="stop-color:#EF280E"/>
		</linearGradient>
		
			<rect x="1344.038" y="1702.219" style="clip-path:url(#SVGID_00000067198873591276214030000008727732188551363006_);fill:url(#SVGID_00000036943928704546683420000018029590814816139908_);" width="451.335" height="853.774"/>
	</g>
	<g>
		<defs>
			<polygon id="SVGID_00000094593138459443435910000005173861525896811148_" points="1795.373,2187.406 1795.373,1717.618 
				2664.186,2606.77 2214.736,2606.77 			"/>
		</defs>
		<clipPath id="SVGID_00000111187678976501957210000005452362444507551673_">
			<use xlink:href="#SVGID_00000094593138459443435910000005173861525896811148_"  style="overflow:visible;"/>
		</clipPath>
		
			<linearGradient id="SVGID_00000145044158741584535690000007419003471113291708_" gradientUnits="userSpaceOnUse" x1="2608.3792" y1="2513.7546" x2="1822.5179" y2="1784.0188">
			<stop  offset="0" style="stop-color:#23F5FC"/>
			<stop  offset="1" style="stop-color:#EB46CB"/>
		</linearGradient>
		
			<rect x="1795.373" y="1717.618" style="clip-path:url(#SVGID_00000111187678976501957210000005452362444507551673_);fill:url(#SVGID_00000145044158741584535690000007419003471113291708_);" width="868.813" height="889.152"/>
	</g>
	<polygon style="fill-rule:evenodd;clip-rule:evenodd;fill:#6E248C;" points="1826.445,1749.418 1826.445,2218.479 
		1795.373,2187.406 1795.373,1717.618 	"/>
	<polygon style="fill-rule:evenodd;clip-rule:evenodd;fill:#6E248C;" points="1795.373,1717.618 1344.038,2138.501 
		1780.326,1702.219 	"/>
	<g>
		<defs>
			<polygon id="SVGID_00000093155063885333467050000000538405976859344823_" points="1847.569,1169.522 1862.616,1154.476 
				2298.902,718.193 2298.902,1184.573 1855.097,1628.376 1847.569,1628.376 1388.716,1628.376 			"/>
		</defs>
		<clipPath id="SVGID_00000025432959393332606230000011918068987147084981_">
			<use xlink:href="#SVGID_00000093155063885333467050000000538405976859344823_"  style="overflow:visible;"/>
		</clipPath>
		
			<linearGradient id="SVGID_00000114058553916566798780000009872921129137044371_" gradientUnits="userSpaceOnUse" x1="1311.8595" y1="1623.1223" x2="2326.9482" y2="764.7225">
			<stop  offset="0" style="stop-color:#FFF000"/>
			<stop  offset="1" style="stop-color:#BC599C"/>
		</linearGradient>
		
			<rect x="1388.716" y="718.193" style="clip-path:url(#SVGID_00000025432959393332606230000011918068987147084981_);fill:url(#SVGID_00000114058553916566798780000009872921129137044371_);" width="910.186" height="910.182"/>
	</g>
	<path style="fill:#EDEEEE;" d="M3110,3111.403v-118.719c0-21.998-5.443-38.666-16.327-50.005
		c-10.885-11.338-25.967-17.007-45.244-17.007c-12.471,0-23.584,2.439-33.336,7.368c-9.75,4.934-18.597,12.134-26.533,21.773
		c-4.76-9.41-11.511-16.558-20.241-21.6c-8.73-5.047-19.104-7.541-31.125-7.541c-6.576,0-12.527,0.791-17.858,2.378
		c-5.327,1.647-10.149,3.801-14.456,6.52c-4.312,2.781-8.221,5.899-11.736,9.414c-3.516,3.573-6.746,7.257-9.695,11.169v-26.082
		h-51.708v182.332h51.708v-101.483c0-12.189,2.776-21.43,8.333-27.61c5.556-6.235,13.21-9.353,22.961-9.353
		c9.752,0,17.237,3.118,22.451,9.353c5.215,6.18,7.823,15.421,7.823,27.61v101.483h51.708v-101.483
		c0-12.189,2.776-21.43,8.333-27.61c5.556-6.235,13.21-9.353,22.961-9.353c9.75,0,17.236,3.118,22.451,9.353
		c5.215,6.18,7.826,15.421,7.826,27.61v101.483H3110z M2785.477,3111.403v-182.332h-51.703v101.484
		c0,12.189-2.892,21.43-8.675,27.613c-5.785,6.236-13.663,9.354-23.644,9.354c-9.976,0-17.686-3.118-23.13-9.354
		c-5.444-6.183-8.163-15.424-8.163-27.613v-101.484h-51.705v118.041c0,21.089,5.385,37.646,16.156,49.663
		c10.771,12.022,26.022,18.031,45.753,18.031c6.577,0,12.475-0.796,17.69-2.383c5.215-1.643,9.977-3.796,14.287-6.52
		c4.307-2.776,8.221-5.894,11.735-9.409c3.516-3.572,6.746-7.256,9.695-11.169v26.078H2785.477z M2582.735,3055.954v-0.678
		c0-8.393-1.699-15.536-5.102-21.43c-3.399-5.898-7.711-10.884-12.926-14.967c-5.214-4.081-11.113-7.541-17.689-10.376
		c-6.573-2.833-13.038-5.272-19.39-7.313c-4.986-1.587-9.695-3.175-14.115-4.762c-4.423-1.591-8.337-3.234-11.736-4.933
		c-3.402-1.699-6.123-3.517-8.164-5.444c-2.041-1.929-3.061-4.138-3.061-6.633v-0.679c0-3.628,1.587-6.633,4.761-9.015
		c3.174-2.378,7.939-3.571,14.287-3.571c6.577,0,14.174,1.53,22.792,4.592c8.618,3.061,17.461,7.2,26.533,12.419l19.727-35.718
		c-9.976-6.577-20.92-11.74-32.825-15.479c-11.905-3.741-23.64-5.613-35.207-5.613c-9.297,0-17.971,1.248-26.023,3.74
		c-8.052,2.495-15.083,6.24-21.089,11.226c-6.01,4.99-10.771,11.056-14.286,18.2c-3.516,7.143-5.275,15.364-5.275,24.665v0.679
		c0,8.844,1.646,16.329,4.933,22.451c3.287,6.123,7.542,11.282,12.756,15.476c5.215,4.194,11.058,7.598,17.518,10.205
		c6.465,2.608,12.872,4.822,19.22,6.634c4.99,1.586,9.751,3.062,14.286,4.423c4.537,1.361,8.563,2.777,12.077,4.251
		c3.516,1.474,6.292,3.234,8.333,5.275c2.041,2.041,3.061,4.419,3.061,7.143v0.679c0,4.082-1.755,7.37-5.271,9.864
		c-3.515,2.494-9.015,3.745-16.5,3.745c-8.615,0-17.86-1.816-27.722-5.444c-9.864-3.627-19.788-9.072-29.764-16.328l-22.114,34.018
		c12.247,9.522,25.118,16.497,38.611,20.921c13.496,4.419,26.702,6.632,39.631,6.632c9.751,0,18.879-1.193,27.381-3.571
		c8.505-2.382,15.934-5.954,22.282-10.715c6.353-4.765,11.282-10.832,14.797-18.2
		C2580.98,3074.95,2582.735,3066.159,2582.735,3055.954z M2359.246,3020.579c0,7.766-1.19,14.74-3.573,20.864
		c-2.378,6.179-5.612,11.506-9.694,15.93c-4.082,4.48-8.787,7.883-14.114,10.318c-5.332,2.383-11.058,3.572-17.18,3.572
		c-6.123,0-11.849-1.189-17.18-3.572c-5.327-2.435-9.976-5.837-13.946-10.318c-3.969-4.424-7.143-9.807-9.526-16.102
		c-2.379-6.236-3.572-13.151-3.572-20.691v-0.679c0-7.541,1.193-14.46,3.572-20.695c2.382-6.292,5.556-11.68,9.526-16.103
		c3.97-4.476,8.619-7.879,13.946-10.318c5.331-2.377,11.057-3.571,17.18-3.571c6.122,0,11.848,1.194,17.18,3.571
		c5.327,2.439,10.032,5.842,14.114,10.318c4.082,4.423,7.316,9.811,9.694,16.103c2.383,6.236,3.573,13.154,3.573,20.695V3020.579z
		 M2410.955,3020.579v-0.679c0-15.196-2.327-28.634-6.976-40.31c-4.649-11.68-10.827-21.547-18.537-29.594
		c-7.711-8.052-16.557-14.118-26.534-18.2c-9.979-4.082-20.297-6.123-30.956-6.123c-13.608,0-24.89,2.776-33.845,8.275
		c-8.96,5.502-16.613,12.532-22.961,21.09v-25.967h-51.708v236.759h51.708v-78.011c6.123,7.2,13.663,13.491,22.619,18.88
		c8.96,5.384,20.354,8.107,34.187,8.107c10.884,0,21.318-2.041,31.294-6.123c9.979-4.082,18.767-10.148,26.364-18.2
		c7.598-8.052,13.72-17.914,18.369-29.594C2408.628,3049.209,2410.955,3035.773,2410.955,3020.579z M2165.352,3111.403v-238.117
		h-52.384v238.117H2165.352z M1958.19,3111.403v-118.719c0-21.998-5.444-38.666-16.329-50.005
		c-10.884-11.338-25.966-17.007-45.243-17.007c-12.471,0-23.585,2.439-33.335,7.368c-9.751,4.934-18.598,12.134-26.533,21.773
		c-4.762-9.41-11.511-16.558-20.242-21.6c-8.73-5.047-19.105-7.541-31.125-7.541c-6.577,0-12.528,0.791-17.858,2.378
		c-5.329,1.647-10.149,3.801-14.456,6.52c-4.311,2.781-8.22,5.899-11.736,9.414c-3.515,3.573-6.745,7.257-9.695,11.169v-26.082
		h-51.707v182.332h51.707v-101.483c0-12.189,2.777-21.43,8.334-27.61c5.556-6.235,13.21-9.353,22.96-9.353
		c9.751,0,17.236,3.118,22.452,9.353c5.215,6.18,7.823,15.421,7.823,27.61v101.483h51.708v-101.483
		c0-12.189,2.776-21.43,8.333-27.61c5.557-6.235,13.21-9.353,22.962-9.353c9.751,0,17.236,3.118,22.451,9.353
		c5.214,6.18,7.827,15.421,7.827,27.61v101.483H1958.19z M1591.147,3005.95h-77.9c2.041-11.792,6.408-21.201,13.098-28.233
		c6.689-7.031,15.476-10.546,26.364-10.546c10.883,0,19.614,3.571,26.192,10.715
		C1585.478,2985.03,1589.56,2994.387,1591.147,3005.95z M1641.494,3025.34v-0.679c0-12.926-1.76-25.345-5.272-37.249
		c-3.515-11.905-8.959-22.451-16.329-31.636c-7.372-9.184-16.612-16.5-27.726-21.94c-11.113-5.444-24.263-8.164-39.458-8.164
		c-13.379,0-25.569,2.494-36.569,7.481c-10.996,4.99-20.466,11.796-28.405,20.413c-7.935,8.615-14.115,18.707-18.539,30.274
		c-4.423,11.567-6.632,23.814-6.632,36.739v0.678c0,14.062,2.382,26.817,7.143,38.269c4.761,11.454,11.394,21.374,19.899,29.766
		c8.506,8.39,18.598,14.855,30.275,19.39c11.679,4.536,24.323,6.803,37.93,6.803c16.553,0,30.953-3.006,43.199-9.016
		c12.246-6.007,22.68-14.344,31.298-25.003l-29.595-26.191c-7.257,6.577-14.287,11.338-21.094,14.287
		c-6.802,2.949-14.512,4.424-23.129,4.424c-11.568,0-21.262-3.005-29.084-9.016c-7.823-6.011-12.982-14.909-15.476-26.701h126.883
		c0.226-2.495,0.393-4.653,0.51-6.465C1641.437,3029.988,1641.494,3027.834,1641.494,3025.34z M1439.093,2979.759v-54.087
		c-15.42-0.684-27.666,2.72-36.738,10.205c-9.073,7.485-16.216,17.461-21.431,29.935v-36.742h-51.708v182.332h51.708v-67.353
		c0-21.997,4.93-38.212,14.797-48.643c9.864-10.434,23.415-15.648,40.647-15.648H1439.093z M1240.775,3021.257
		c0,6.806-1.078,13.21-3.235,19.221c-2.153,6.011-5.271,11.282-9.353,15.817c-4.082,4.537-9.016,8.108-14.797,10.716
		c-5.781,2.607-12.414,3.912-19.9,3.912c-7.256,0-13.776-1.361-19.558-4.081c-5.786-2.723-10.828-6.407-15.139-11.056
		c-4.307-4.649-7.597-9.98-9.863-15.987c-2.27-6.011-3.403-12.419-3.403-19.22v-0.679c0-6.805,1.077-13.21,3.23-19.221
		c2.157-6.011,5.275-11.281,9.357-15.818c4.082-4.535,9.011-8.107,14.797-10.715c5.782-2.607,12.414-3.913,19.899-3.913
		c7.031,0,13.493,1.363,19.39,4.082c5.894,2.723,10.997,6.408,15.308,11.057c4.307,4.649,7.598,9.976,9.863,15.987
		c2.27,6.009,3.404,12.418,3.404,19.22V3021.257z M1291.8,3020.579v-0.679c0-13.154-2.496-25.457-7.486-36.91
		c-4.99-11.451-11.848-21.431-20.578-29.932c-8.731-8.505-19.109-15.195-31.126-20.072c-12.02-4.874-25.059-7.313-39.12-7.313
		c-14.287,0-27.441,2.494-39.458,7.481c-12.021,4.99-22.451,11.796-31.298,20.413c-8.844,8.615-15.762,18.651-20.748,30.106
		c-4.99,11.45-7.485,23.753-7.485,36.907v0.678c0,13.154,2.494,25.456,7.485,36.91c4.986,11.451,11.848,21.43,20.578,29.932
		c8.73,8.505,19.108,15.195,31.125,20.073c12.022,4.873,25.059,7.313,39.12,7.313c14.287,0,27.441-2.496,39.459-7.485
		c12.021-4.987,22.451-11.792,31.298-20.411c8.843-8.618,15.758-18.65,20.748-30.105
		C1289.304,3046.034,1291.8,3033.733,1291.8,3020.579z M1069.33,3111.403v-47.284H950.611v-190.834h-52.387v238.117H1069.33z"/>
	<g>
		<g>
			
				<text transform="matrix(1 0 0 1 1373.9219 3317.8164)" style="fill:#EDEEEE; font-family:'ArialNarrow-Bold'; font-size:114.8468px;">A</text>
		</g>
	</g>
	<g>
		<g>
			
				<text transform="matrix(1 0 0 1 1438.4658 3317.8164)" style="fill:#EDEEEE; font-family:'ArialNarrow-Bold'; font-size:114.8468px;"> W E S O M E  T </text>
		</g>
	</g>
	<g>
		<g>
			
				<text transform="matrix(1 0 0 1 2157.2988 3317.8164)" style="fill:#EDEEEE; font-family:'ArialNarrow-Bold'; font-size:114.8468px;">A</text>
		</g>
	</g>
	<g>
		<g>
			
				<text transform="matrix(1 0 0 1 2221.8428 3317.8164)" style="fill:#EDEEEE; font-family:'ArialNarrow-Bold'; font-size:114.8468px;"> G L</text>
		</g>
	</g>
	<g>
		<g>
			
				<text transform="matrix(1 0 0 1 2403.416 3317.8164)" style="fill:#EDEEEE; font-family:'ArialNarrow-Bold'; font-size:114.8468px;"> I N E</text>
		</g>
	</g>
</g>
</svg>
